<?xml version="1.0" encoding="utf-8"?>
<!-- Generator: Adobe Illustrator 28.2.0, SVG Export Plug-In . SVG Version: 6.00 Build 0)  -->
<svg version="1.1" id="Capa_1" xmlns="http://www.w3.org/2000/svg" xmlns:xlink="http://www.w3.org/1999/xlink" x="0px" y="0px"
	 viewBox="0 0 800 800" style="enable-background:new 0 0 800 800;" xml:space="preserve">
<style type="text/css">
	.st0{fill-rule:evenodd;clip-rule:evenodd;}
</style>
<g>
	<path d="M719.6,693.4l-46-518.8c-0.8-10.3-9.4-18.1-19.9-18.1h-97C556.5,70.2,486.3,0,400,0S243.5,70.2,243.3,156.5h-97
		c-10.3,0-18.9,7.8-19.9,18.1l-46,518.8c0,0.7,0,1.2,0,1.8C80.4,753,133.6,800,198.8,800h402.4c65.2,0,118.4-47,118.4-104.8
		C719.6,694.5,719.6,694,719.6,693.4z M400,39.7c64.4,0,116.7,52.3,116.9,116.7H283.1C283.3,92.1,335.6,39.7,400,39.7z M601.2,760.1
		H198.8c-43.1,0-78.2-28.6-78.7-64.3l44.4-499.6h78.8v69.7c0,10.9,8.9,19.9,19.9,19.9c10.9,0,19.9-8.9,19.9-19.9v-69.7h233.8v69.7
		c0,10.9,8.9,19.9,19.9,19.9c10.9,0,19.9-8.9,19.9-19.9v-69.7h78.8L679.9,696C679.4,731.4,644.3,760.1,601.2,760.1z"/>
</g>
<g id="layer1" transform="translate(0 -1036.362)">
	<path id="path5625" d="M517.2,1415.5c-60.5-57.2-154.5-62.7-221.4-13c-6.5,5.4-13,10.8-18.4,16.2l23.8,23.8
		c4.3-4.3,9.7-8.6,15.1-13c54-40,128.5-35.6,178.2,9.7c5.4,5.4,10.8,10.8,15.1,17.3c25.9,34.6,33.5,77.8,22.7,118.8l25.9,27
		c21.6-55.1,13-117.7-22.7-165.3C531.3,1429.5,524.8,1422,517.2,1415.5L517.2,1415.5z M497.8,1638c-4.3,4.3-9.7,8.6-14,13l0,0
		c-61.6,45.4-148,33.5-193.4-28.1c-25.9-34.6-33.5-77.8-22.7-118.8l-25.9-25.9c-21.6,55.1-13,117.7,21.6,165.3
		c57.2,75.6,164.2,91.8,240.9,34.6l0,0c6.5-5.4,11.9-9.7,18.4-16.2L497.8,1638L497.8,1638z"/>
	<path id="path5655" class="st0" d="M327.1,1418.7h-48.6l72.4,72.4l23.8-23.8L327.1,1418.7z"/>
	<path id="path5668" class="st0" d="M448.1,1589.4l-24.8,23.8l48.6,48.6h48.6L448.1,1589.4z"/>
</g>
</svg>
