<?xml version="1.0" encoding="utf-8"?>
<!-- Generator: Adobe Illustrator 28.1.0, SVG Export Plug-In . SVG Version: 6.00 Build 0)  -->
<svg version="1.1" id="Layer_1" xmlns="http://www.w3.org/2000/svg" xmlns:xlink="http://www.w3.org/1999/xlink" x="0px" y="0px"
	 viewBox="0 0 32 32" style="enable-background:new 0 0 32 32;" xml:space="preserve">
<style type="text/css">
	.st0{fill:#373737;}
	.st1{fill-rule:evenodd;clip-rule:evenodd;fill:#373737;}
</style>
<g id="layer1" transform="translate(0 -1036.362)">
	<path id="path5625" class="st0" d="M27,1040.7c-5.6-5.3-14.3-5.8-20.5-1.2c-0.6,0.5-1.2,1-1.7,1.5l2.2,2.2c0.4-0.4,0.9-0.8,1.4-1.2
		c5-3.7,11.9-3.3,16.5,0.9c0.5,0.5,1,1,1.4,1.6c2.4,3.2,3.1,7.2,2.1,11l2.4,2.5c2-5.1,1.2-10.9-2.1-15.3
		C28.3,1042,27.7,1041.3,27,1040.7L27,1040.7z M25.2,1061.3c-0.4,0.4-0.9,0.8-1.3,1.2l0,0c-5.7,4.2-13.7,3.1-17.9-2.6
		c-2.4-3.2-3.1-7.2-2.1-11l-2.4-2.4c-2,5.1-1.2,10.9,2,15.3c5.3,7,15.2,8.5,22.3,3.2l0,0c0.6-0.5,1.1-0.9,1.7-1.5L25.2,1061.3
		L25.2,1061.3z"/>
	<path id="path5655" class="st1" d="M9.4,1041H4.9l6.7,6.7l2.2-2.2L9.4,1041z"/>
	<path id="path5668" class="st1" d="M20.6,1056.8l-2.3,2.2l4.5,4.5h4.5L20.6,1056.8z"/>
</g>
</svg>
